<?xml version="1.0" encoding="utf-8"?>
<svg viewBox="200.82 145.426 17 18" width="13" height="13" xmlns="http://www.w3.org/2000/svg">
  <path d="M17.54,12.95c-.07-.29-.32-.5-.6-.54,0,0,0,0,0,0,0,0,0,0-.01,0-.06,0-.11,0-.17,0-.02,0-.04,0-.06,0-.01,0-.02,0-.03,0-.93,.24-1.89,.3-2.85,.17-4.17-.54-7.12-4.46-6.5-8.62,.14-.96,.46-1.86,.94-2.68,0-.01,.01-.02,.02-.04,0-.02,.01-.03,.02-.05,.02-.06,.04-.12,.05-.17,0,0,0,0,0,0,0,0,0,0,0,0,0-.04,0-.09,0-.13,0,0,0-.02,0-.03,0-.04,0-.09-.02-.13,0-.02-.01-.03-.02-.05-.05-.16-.16-.3-.32-.4-.18-.11-.4-.12-.58-.06,0,0,0,0,0,0-1.13,.29-2.19,.8-3.15,1.52C.3,4.76-.49,10.42,2.5,14.38c1.5,1.98,3.66,3.17,5.94,3.49,2.28,.32,4.69-.23,6.67-1.72,.95-.72,1.73-1.59,2.32-2.6,0,0,0,0,0-.01,.03-.04,.05-.08,.07-.13,0,0,0,0,0,0,.05-.14,.07-.29,.03-.44Zm-3.3,2.04c-3.32,2.51-8.07,1.84-10.58-1.48C1.15,10.19,1.81,5.44,5.14,2.93c.31-.23,.63-.43,.96-.61,.06-.03,.13,.03,.11,.09-.15,.47-.26,.96-.33,1.46-.69,4.92,2.75,9.47,7.67,10.16,.5,.07,1,.1,1.49,.08,.07,0,.1,.08,.06,.13-.26,.27-.54,.52-.85,.75Z" transform="matrix(1, 0, 0, 1, 200.133713, 145.242691)" style="fill: rgb(153, 153, 153);"/>
  <path d="M17.6,4.47c-.06-.18-.22-.32-.41-.35l-1.83-.27-.82-1.66c-.09-.17-.26-.28-.46-.28s-.37,.11-.46,.28l-.82,1.66-1.83,.27c-.19,.03-.35,.16-.41,.35s0,.39,.13,.52l1.33,1.29-.31,1.82c-.03,.19,.05,.38,.2,.5,.16,.11,.36,.13,.54,.04l1.64-.86,1.64,.86c.07,.04,.16,.06,.24,.06,.11,0,.21-.03,.3-.1,.16-.11,.24-.31,.2-.5l-.31-1.82,1.33-1.29c.14-.14,.19-.34,.13-.52h0Zm-2.36,1.27c-.12,.12-.17,.29-.15,.45l.18,1.07-.96-.51c-.07-.04-.16-.06-.24-.06s-.16,.02-.24,.06l-.96,.51,.18-1.07c.03-.17-.03-.33-.15-.45l-.78-.76,1.08-.16c.17-.02,.31-.13,.38-.28l.48-.97,.48,.97c.07,.15,.22,.25,.38,.28l1.08,.16-.78,.76Z" transform="matrix(1, 0, 0, 1, 200.133713, 145.242691)" style="fill: rgb(153, 153, 153);"/>
</svg>