<?xml version="1.0" encoding="utf-8"?>
<svg viewBox="219.568 123.581 18 18" width="16" height="16" xmlns="http://www.w3.org/2000/svg">
  <path d="M4.94,3.81l-1.03-1.03c-.28-.28-.75-.28-1.03,0-.28,.28-.28,.75,0,1.03l1.03,1.03c.14,.14,.33,.21,.51,.21s.37-.07,.51-.21c.28-.28,.28-.75,0-1.03Z" transform="matrix(1, 0, 0, 1, 219.248016, 123.361031)" style="fill: rgb(247, 247, 247);"/>
  <path d="M2.51,8.23H1.05c-.4,0-.73,.33-.73,.73s.33,.73,.73,.73h1.46c.4,0,.73-.33,.73-.73s-.33-.73-.73-.73Z" transform="matrix(1, 0, 0, 1, 219.248016, 123.361031)" style="fill: rgb(247, 247, 247);"/>
  <path d="M4.94,13.07c-.28-.28-.75-.28-1.03,0l-1.03,1.03c-.28,.28-.28,.75,0,1.03,.14,.14,.33,.21,.51,.21s.37-.07,.51-.21l1.03-1.03c.28-.28,.28-.75,0-1.03Z" transform="matrix(1, 0, 0, 1, 219.248016, 123.361031)" style="fill: rgb(247, 247, 247);"/>
  <path d="M9.06,14.78c-.4,0-.73,.33-.73,.73v1.46c0,.4,.33,.73,.73,.73s.73-.33,.73-.73v-1.46c0-.4-.33-.73-.73-.73Z" transform="matrix(1, 0, 0, 1, 219.248016, 123.361031)" style="fill: rgb(247, 247, 247);"/>
  <path d="M15.24,14.1l-1.03-1.03c-.28-.28-.75-.28-1.03,0-.28,.28-.28,.75,0,1.03l1.03,1.03c.14,.14,.33,.21,.51,.21s.37-.07,.51-.21c.28-.28,.28-.75,0-1.03Z" transform="matrix(1, 0, 0, 1, 219.248016, 123.361031)" style="fill: rgb(247, 247, 247);"/>
  <path d="M17.07,8.23h-1.46c-.4,0-.73,.33-.73,.73s.33,.73,.73,.73h1.46c.4,0,.73-.33,.73-.73s-.33-.73-.73-.73Z" transform="matrix(1, 0, 0, 1, 219.248016, 123.361031)" style="fill: rgb(247, 247, 247);"/>
  <path d="M15.24,2.78c-.28-.28-.75-.28-1.03,0l-1.03,1.03c-.28,.28-.28,.75,0,1.03,.14,.14,.33,.21,.51,.21s.37-.07,.51-.21l1.03-1.03c.28-.28,.28-.75,0-1.03Z" transform="matrix(1, 0, 0, 1, 219.248016, 123.361031)" style="fill: rgb(247, 247, 247);"/>
  <path d="M9.06,.22c-.4,0-.73,.33-.73,.73v1.46c0,.4,.33,.73,.73,.73s.73-.33,.73-.73V.95c0-.4-.33-.73-.73-.73Z" transform="matrix(1, 0, 0, 1, 219.248016, 123.361031)" style="fill: rgb(247, 247, 247);"/>
  <path d="M9.06,4.22c-2.61,0-4.73,2.12-4.73,4.73s2.12,4.73,4.73,4.73,4.73-2.12,4.73-4.73-2.12-4.73-4.73-4.73Zm0,8.01c-1.81,0-3.28-1.47-3.28-3.28s1.47-3.28,3.28-3.28,3.28,1.47,3.28,3.28-1.47,3.28-3.28,3.28Z" transform="matrix(1, 0, 0, 1, 219.248016, 123.361031)" style="fill: rgb(247, 247, 247);"/>
</svg>